<svg id="visual" viewBox="0 0 900 600" width="900" height="600" xmlns="http://www.w3.org/2000/svg" xmlns:xlink="http://www.w3.org/1999/xlink" version="1.1"><rect x="0" y="0" width="900" height="600" fill="#0f0f5a"></rect><path d="M0 456L6.5 439C13 422 26 388 39 382.2C52 376.3 65 398.7 78 402.7C91 406.7 104 392.3 117.2 395C130.3 397.7 143.7 417.3 156.8 417.3C170 417.3 183 397.7 196 392.5C209 387.3 222 396.7 235 406.8C248 417 261 428 274 429.2C287 430.3 300 421.7 313 419C326 416.3 339 419.7 352 427.2C365 434.7 378 446.3 391 447.8C404 449.3 417 440.7 430.2 436.2C443.3 431.7 456.7 431.3 469.8 429.7C483 428 496 425 509 425C522 425 535 428 548 426.7C561 425.3 574 419.7 587 405.8C600 392 613 370 626 359.8C639 349.7 652 351.3 665 370.3C678 389.3 691 425.7 704 443.5C717 461.3 730 460.7 743.2 453C756.3 445.3 769.7 430.7 782.8 430.8C796 431 809 446 822 448.7C835 451.3 848 441.7 861 439.7C874 437.7 887 443.3 893.5 446.2L900 449L900 601L893.5 601C887 601 874 601 861 601C848 601 835 601 822 601C809 601 796 601 782.8 601C769.7 601 756.3 601 743.2 601C730 601 717 601 704 601C691 601 678 601 665 601C652 601 639 601 626 601C613 601 600 601 587 601C574 601 561 601 548 601C535 601 522 601 509 601C496 601 483 601 469.8 601C456.7 601 443.3 601 430.2 601C417 601 404 601 391 601C378 601 365 601 352 601C339 601 326 601 313 601C300 601 287 601 274 601C261 601 248 601 235 601C222 601 209 601 196 601C183 601 170 601 156.8 601C143.7 601 130.3 601 117.2 601C104 601 91 601 78 601C65 601 52 601 39 601C26 601 13 601 6.5 601L0 601Z" fill="#3619b7"></path><path d="M0 450L6.5 440C13 430 26 410 39 403.3C52 396.7 65 403.3 78 405C91 406.7 104 403.3 117.2 413.7C130.3 424 143.7 448 156.8 455C170 462 183 452 196 450.2C209 448.3 222 454.7 235 450.2C248 445.7 261 430.3 274 423.7C287 417 300 419 313 421.7C326 424.3 339 427.7 352 431.7C365 435.7 378 440.3 391 448C404 455.7 417 466.3 430.2 459.2C443.3 452 456.7 427 469.8 421.3C483 415.7 496 429.3 509 425.7C522 422 535 401 548 389C561 377 574 374 587 390.2C600 406.3 613 441.7 626 446.5C639 451.3 652 425.7 665 423.8C678 422 691 444 704 452.7C717 461.3 730 456.7 743.2 456.7C756.3 456.7 769.7 461.3 782.8 461C796 460.7 809 455.3 822 452.7C835 450 848 450 861 436.7C874 423.3 887 396.7 893.5 383.3L900 370L900 601L893.5 601C887 601 874 601 861 601C848 601 835 601 822 601C809 601 796 601 782.8 601C769.7 601 756.3 601 743.2 601C730 601 717 601 704 601C691 601 678 601 665 601C652 601 639 601 626 601C613 601 600 601 587 601C574 601 561 601 548 601C535 601 522 601 509 601C496 601 483 601 469.8 601C456.7 601 443.3 601 430.2 601C417 601 404 601 391 601C378 601 365 601 352 601C339 601 326 601 313 601C300 601 287 601 274 601C261 601 248 601 235 601C222 601 209 601 196 601C183 601 170 601 156.8 601C143.7 601 130.3 601 117.2 601C104 601 91 601 78 601C65 601 52 601 39 601C26 601 13 601 6.5 601L0 601Z" fill="#5f3bc2"></path><path d="M0 414L6.5 416.8C13 419.7 26 425.3 39 437.7C52 450 65 469 78 477C91 485 104 482 117.2 480.3C130.3 478.7 143.7 478.3 156.8 471.2C170 464 183 450 196 448.3C209 446.7 222 457.3 235 458.8C248 460.3 261 452.7 274 455.3C287 458 300 471 313 464.3C326 457.7 339 431.3 352 429.5C365 427.7 378 450.3 391 462.5C404 474.7 417 476.3 430.2 474.3C443.3 472.3 456.7 466.7 469.8 454.2C483 441.7 496 422.3 509 420.2C522 418 535 433 548 437C561 441 574 434 587 439C600 444 613 461 626 469.7C639 478.3 652 478.7 665 477.5C678 476.3 691 473.7 704 473.7C717 473.7 730 476.3 743.2 474C756.3 471.7 769.7 464.3 782.8 463.7C796 463 809 469 822 473.7C835 478.3 848 481.7 861 484C874 486.3 887 487.7 893.5 488.3L900 489L900 601L893.5 601C887 601 874 601 861 601C848 601 835 601 822 601C809 601 796 601 782.8 601C769.7 601 756.3 601 743.2 601C730 601 717 601 704 601C691 601 678 601 665 601C652 601 639 601 626 601C613 601 600 601 587 601C574 601 561 601 548 601C535 601 522 601 509 601C496 601 483 601 469.8 601C456.7 601 443.3 601 430.2 601C417 601 404 601 391 601C378 601 365 601 352 601C339 601 326 601 313 601C300 601 287 601 274 601C261 601 248 601 235 601C222 601 209 601 196 601C183 601 170 601 156.8 601C143.7 601 130.3 601 117.2 601C104 601 91 601 78 601C65 601 52 601 39 601C26 601 13 601 6.5 601L0 601Z" fill="#7f5bcd"></path><path d="M0 459L6.5 466.8C13 474.7 26 490.3 39 491C52 491.7 65 477.3 78 474.5C91 471.7 104 480.3 117.2 486.7C130.3 493 143.7 497 156.8 495C170 493 183 485 196 482C209 479 222 481 235 486.8C248 492.7 261 502.3 274 495C287 487.7 300 463.3 313 462.7C326 462 339 485 352 488C365 491 378 474 391 461.3C404 448.7 417 440.3 430.2 445.5C443.3 450.7 456.7 469.3 469.8 473.5C483 477.7 496 467.3 509 466.3C522 465.3 535 473.7 548 474.7C561 475.7 574 469.3 587 472.5C600 475.7 613 488.3 626 487C639 485.7 652 470.3 665 458.8C678 447.3 691 439.7 704 436.3C717 433 730 434 743.2 437.2C756.3 440.3 769.7 445.7 782.8 454C796 462.3 809 473.7 822 474.2C835 474.7 848 464.3 861 455.8C874 447.3 887 440.7 893.5 437.3L900 434L900 601L893.5 601C887 601 874 601 861 601C848 601 835 601 822 601C809 601 796 601 782.8 601C769.7 601 756.3 601 743.2 601C730 601 717 601 704 601C691 601 678 601 665 601C652 601 639 601 626 601C613 601 600 601 587 601C574 601 561 601 548 601C535 601 522 601 509 601C496 601 483 601 469.8 601C456.7 601 443.3 601 430.2 601C417 601 404 601 391 601C378 601 365 601 352 601C339 601 326 601 313 601C300 601 287 601 274 601C261 601 248 601 235 601C222 601 209 601 196 601C183 601 170 601 156.8 601C143.7 601 130.3 601 117.2 601C104 601 91 601 78 601C65 601 52 601 39 601C26 601 13 601 6.5 601L0 601Z" fill="#9b7ad8"></path><path d="M0 501L6.5 504.3C13 507.7 26 514.3 39 509.8C52 505.3 65 489.7 78 486.2C91 482.7 104 491.3 117.2 489.8C130.3 488.3 143.7 476.7 156.8 472C170 467.3 183 469.7 196 479.2C209 488.7 222 505.3 235 512.5C248 519.7 261 517.3 274 510.3C287 503.3 300 491.7 313 491.5C326 491.3 339 502.7 352 502.3C365 502 378 490 391 488.2C404 486.3 417 494.7 430.2 499C443.3 503.3 456.7 503.7 469.8 500.3C483 497 496 490 509 490.5C522 491 535 499 548 507C561 515 574 523 587 525C600 527 613 523 626 517.5C639 512 652 505 665 496.8C678 488.7 691 479.3 704 473C717 466.7 730 463.3 743.2 473.8C756.3 484.3 769.7 508.7 782.8 519.3C796 530 809 527 822 522.5C835 518 848 512 861 503.8C874 495.7 887 485.3 893.5 480.2L900 475L900 601L893.5 601C887 601 874 601 861 601C848 601 835 601 822 601C809 601 796 601 782.8 601C769.7 601 756.3 601 743.2 601C730 601 717 601 704 601C691 601 678 601 665 601C652 601 639 601 626 601C613 601 600 601 587 601C574 601 561 601 548 601C535 601 522 601 509 601C496 601 483 601 469.8 601C456.7 601 443.3 601 430.2 601C417 601 404 601 391 601C378 601 365 601 352 601C339 601 326 601 313 601C300 601 287 601 274 601C261 601 248 601 235 601C222 601 209 601 196 601C183 601 170 601 156.8 601C143.7 601 130.3 601 117.2 601C104 601 91 601 78 601C65 601 52 601 39 601C26 601 13 601 6.5 601L0 601Z" fill="#b59ae2"></path><path d="M0 517L6.5 519C13 521 26 525 39 526.8C52 528.7 65 528.3 78 527.2C91 526 104 524 117.2 526.2C130.3 528.3 143.7 534.7 156.8 535.3C170 536 183 531 196 528.5C209 526 222 526 235 520.7C248 515.3 261 504.7 274 505C287 505.3 300 516.7 313 524.8C326 533 339 538 352 537.7C365 537.3 378 531.7 391 531.5C404 531.3 417 536.7 430.2 536.8C443.3 537 456.7 532 469.8 523.7C483 515.3 496 503.7 509 499.5C522 495.3 535 498.7 548 500.5C561 502.3 574 502.7 587 504.3C600 506 613 509 626 511C639 513 652 514 665 519.8C678 525.7 691 536.3 704 532.2C717 528 730 509 743.2 503.8C756.3 498.7 769.7 507.3 782.8 507.3C796 507.3 809 498.7 822 495.3C835 492 848 494 861 493.5C874 493 887 490 893.5 488.5L900 487L900 601L893.5 601C887 601 874 601 861 601C848 601 835 601 822 601C809 601 796 601 782.8 601C769.7 601 756.3 601 743.2 601C730 601 717 601 704 601C691 601 678 601 665 601C652 601 639 601 626 601C613 601 600 601 587 601C574 601 561 601 548 601C535 601 522 601 509 601C496 601 483 601 469.8 601C456.7 601 443.3 601 430.2 601C417 601 404 601 391 601C378 601 365 601 352 601C339 601 326 601 313 601C300 601 287 601 274 601C261 601 248 601 235 601C222 601 209 601 196 601C183 601 170 601 156.8 601C143.7 601 130.3 601 117.2 601C104 601 91 601 78 601C65 601 52 601 39 601C26 601 13 601 6.5 601L0 601Z" fill="#cebbec"></path><path d="M0 552L6.5 552.3C13 552.7 26 553.3 39 547.8C52 542.3 65 530.7 78 527C91 523.3 104 527.7 117.2 529C130.3 530.3 143.7 528.7 156.8 531.2C170 533.7 183 540.3 196 542.8C209 545.3 222 543.7 235 545.3C248 547 261 552 274 548C287 544 300 531 313 530.2C326 529.3 339 540.7 352 548.7C365 556.7 378 561.3 391 556.5C404 551.7 417 537.3 430.2 537C443.3 536.7 456.7 550.3 469.8 554.2C483 558 496 552 509 548.8C522 545.7 535 545.3 548 545C561 544.7 574 544.3 587 542.7C600 541 613 538 626 538.5C639 539 652 543 665 545.7C678 548.3 691 549.7 704 545C717 540.3 730 529.7 743.2 531C756.3 532.3 769.7 545.7 782.8 547C796 548.3 809 537.7 822 532.5C835 527.3 848 527.7 861 527.3C874 527 887 526 893.5 525.5L900 525L900 601L893.5 601C887 601 874 601 861 601C848 601 835 601 822 601C809 601 796 601 782.8 601C769.7 601 756.3 601 743.2 601C730 601 717 601 704 601C691 601 678 601 665 601C652 601 639 601 626 601C613 601 600 601 587 601C574 601 561 601 548 601C535 601 522 601 509 601C496 601 483 601 469.8 601C456.7 601 443.3 601 430.2 601C417 601 404 601 391 601C378 601 365 601 352 601C339 601 326 601 313 601C300 601 287 601 274 601C261 601 248 601 235 601C222 601 209 601 196 601C183 601 170 601 156.8 601C143.7 601 130.3 601 117.2 601C104 601 91 601 78 601C65 601 52 601 39 601C26 601 13 601 6.5 601L0 601Z" fill="#e7ddf6"></path><path d="M0 578L6.5 575.7C13 573.3 26 568.7 39 566.2C52 563.7 65 563.3 78 566.7C91 570 104 577 117.2 575.5C130.3 574 143.7 564 156.8 562.2C170 560.3 183 566.7 196 566C209 565.3 222 557.7 235 559.3C248 561 261 572 274 577.3C287 582.7 300 582.3 313 581.5C326 580.7 339 579.3 352 575.7C365 572 378 566 391 561.3C404 556.7 417 553.3 430.2 551.2C443.3 549 456.7 548 469.8 551.7C483 555.3 496 563.7 509 567.8C522 572 535 572 548 573.7C561 575.3 574 578.7 587 577.3C600 576 613 570 626 565.7C639 561.3 652 558.7 665 558C678 557.3 691 558.7 704 558C717 557.3 730 554.7 743.2 555.8C756.3 557 769.7 562 782.8 562.8C796 563.7 809 560.3 822 560C835 559.7 848 562.3 861 560.5C874 558.7 887 552.3 893.5 549.2L900 546L900 601L893.5 601C887 601 874 601 861 601C848 601 835 601 822 601C809 601 796 601 782.8 601C769.7 601 756.3 601 743.2 601C730 601 717 601 704 601C691 601 678 601 665 601C652 601 639 601 626 601C613 601 600 601 587 601C574 601 561 601 548 601C535 601 522 601 509 601C496 601 483 601 469.8 601C456.7 601 443.3 601 430.2 601C417 601 404 601 391 601C378 601 365 601 352 601C339 601 326 601 313 601C300 601 287 601 274 601C261 601 248 601 235 601C222 601 209 601 196 601C183 601 170 601 156.8 601C143.7 601 130.3 601 117.2 601C104 601 91 601 78 601C65 601 52 601 39 601C26 601 13 601 6.5 601L0 601Z" fill="#ffffff"></path></svg>